<?xml version="1.0" encoding="UTF-8" standalone="no"?>
<svg width="198px" height="518px" viewBox="0 0 198 518" version="1.1" xmlns="http://www.w3.org/2000/svg" xmlns:xlink="http://www.w3.org/1999/xlink">
    <!-- Generator: Sketch 41.2 (35397) - http://www.bohemiancoding.com/sketch -->
    <title>img_girl_1</title>
    <desc>Created with Sketch.</desc>
    <defs>
        <linearGradient x1="50%" y1="0%" x2="50%" y2="100%" id="linearGradient-1">
            <stop stop-color="#222836" stop-opacity="0" offset="0%"></stop>
            <stop stop-color="#0F1219" offset="100%"></stop>
        </linearGradient>
    </defs>
    <g id="Landing" stroke="none" stroke-width="1" fill="none" fill-rule="evenodd" opacity="0.0984141791">
        <g id="Landing_Minx" transform="translate(-975.000000, -3600.000000)">
            <g id="entertainer" transform="translate(0.000000, 2770.000000)">
                <g id="2" transform="translate(0.000000, 700.000000)">
                    <g id="img_girl_1" transform="translate(975.000000, 130.000000)">
                        <path d="M4.715,201.747 C2.271,195.75 0.666,179.109 1.986,173.155 C2.533,170.69 3.139,168.238 3.764,165.792 C2.305,164.243 1.486,162.559 1.85,162.142 C5.029,156.427 6.01,155.396 6.769,154.066 C7.08,152.792 7.381,151.515 7.666,150.234 C9.492,142.049 10.98,134.366 15.359,127.091 C19.279,120.575 17.828,110.616 17.936,103.156 C18.057,94.822 13.266,81.357 15.752,76.302 C18.236,71.246 28.377,72.188 37.826,66.651 C47.275,61.114 39.154,45.488 39.178,45.578 C35.164,47.425 30.326,34.252 36.045,36.397 C33.643,27.709 38.953,16.454 48.506,13.804 C46.596,12.784 42.945,13.422 41.969,13.615 C40.992,13.808 36.398,17.101 35.693,18.018 C35.371,18.438 34.174,20.907 33.424,21.946 C32.674,22.986 30.213,23.719 31.48,21.279 C30.709,22.328 29.67,22.701 29.973,21.463 C30.275,20.225 32.904,9.509 34.551,8.046 C36.197,6.584 42.072,4.468 44.775,4.161 C47.479,3.854 59.678,-0.892 63.141,0.452 C66.385,1.712 69.551,3.479 72.766,5.08 C73.018,4.41 73.309,3.867 73.646,3.505 C73.666,3.511 74.914,5.058 76.318,6.738 L76.398,6.772 C83.436,9.751 109.295,20.969 110.313,27.07 C111.328,33.171 99.855,47.277 96.244,52.825 C90.375,61.839 86.205,70.672 81.738,80.433 C79.08,86.241 82.232,92.658 80.869,105.367 C79.506,118.076 73.846,130.287 74.232,135.351 C74.523,139.167 77.082,143.226 76.43,146.627 C75.777,150.029 77.729,153.753 77.969,158.801 C78.152,162.706 77.014,162.646 78.158,164.666 C79.303,166.685 81.605,164.598 83.262,166.984 C84.92,169.371 89.367,176.688 90.83,177.91 C92.291,179.133 109.904,194.386 111.418,200.852 C108.578,200.669 106.01,200.821 103.652,201.236 C116.586,222.735 125.74,243.597 127.91,249.581 C130.08,255.565 130.762,271.599 132.018,279.043 C133.273,286.488 139.664,317.573 143.91,341.856 C145.029,348.268 143.131,369.732 144.463,373.102 C145.797,376.472 146.689,376.444 151.801,379.622 C153.852,380.898 153.947,381.593 148.678,381.814 C143.408,382.035 132.781,378.699 129.248,375.864 C125.715,373.029 131.264,356.379 127.225,355.814 C126.514,355.715 125.563,355.797 124.998,356.255 C124.652,356.537 124.381,356.868 124.123,357.358 C122.49,360.893 119.248,367.84 118.635,371.581 C118.564,372.052 116.697,371.292 116.775,371.076 C119.879,365.368 123.24,356.695 121.945,349.947 C120.758,344.698 126.494,342.071 129.039,341.65 C135.523,340.578 117.5,305.797 112.881,293.382 C108.26,280.967 110.08,259.196 107.914,253.757 C104.475,245.122 85.832,226.156 78.434,217.94 C72.205,223.527 68.861,231.673 56.291,231.992 C43.721,232.311 32.857,236.997 26.641,237.242 C23.764,246.067 21.057,260.188 21.143,269.057 C21.213,276.242 21.752,282.036 22.07,292.343 C22.391,302.651 19.811,317.243 18.664,327.943 C17.518,338.643 17.937,340.608 18.576,347.325 C18.818,349.86 17.875,352.47 16.99,355.155 C13.617,358.605 9.568,354.098 7.744,348.852 C8.615,340.624 6.312,327.04 5.389,321.75 C5.172,320.513 2.719,308.154 1.055,294.631 C-0.607,281.107 3.211,269.37 3.549,259.049 C3.887,248.729 4.688,204.896 4.715,201.747 Z M71.35,16.362 C71.35,17.108 71.367,17.742 71.396,18.205 C72.766,18.45 74.889,19.292 77.271,20.437 C79.791,22.183 82.297,23.947 84.805,25.712 C86.777,27.102 91.521,29.797 94.012,31.116 C89.344,35.404 85.453,41.047 82.465,46.864 C82.779,46.24 83.096,45.616 83.412,44.992 C80.557,50.021 74.553,51.41 71.375,56.644 C69.104,60.389 67.572,61.405 64.285,62.4 C60.484,57.373 62.018,47.889 64.797,42.762 C68.949,45.442 72.123,30.688 66.152,33.403 C66.602,26.651 62.459,19.445 57.293,15.381 C58.799,13.929 59.5,9.894 61.643,9.687 C63.453,9.512 69.021,14.578 71.35,16.362 Z M48.654,13.669 C49.357,13.816 48.588,13.655 48.654,13.669 L48.654,13.669 Z M29.475,129.579 C30.584,124.025 32.24,118.433 32.797,112.794 C36.822,120.711 32.902,126.622 28.301,132.94 C28.627,131.804 29.002,130.664 29.475,129.579 L29.475,129.579 Z" id="Fill-4" fill="#AFAFAF"></path>
                        <path d="M75.963,62.289 C69.857,72.928 50.975,81.644 41.883,71.55 L41.6,71.153 C37.432,55.876 28.67,65.447 30.826,43.88 C25.535,56.048 34.537,60.763 34.645,62.426 C18.137,55.037 30.021,33.448 30.008,33.38 C22.949,37.476 25.158,43.468 24.826,47.426 C23.719,44.735 22.596,39.035 24.541,36.279 C32.594,24.875 31.283,16.039 42.963,9.243 C44.668,8.835 53.494,6.923 54.756,8.301 C54.816,7.94 57.648,10.077 57.963,10.334 C72.789,21.637 67.197,39.244 79.234,39.244 C78.549,40.38 74.4,41.55 71.326,39.244 C71.305,39.225 79.951,47.53 76.781,51.244 C76.586,47.208 74.805,46.983 72.281,44.289 C74.301,48.047 80.266,57.985 75.963,62.289" id="Fill-54" fill="#AFAFAF"></path>
                        <path d="M25.935,378.949 C25.543,382.51 18.881,384.381 16.775,384.498 C14.67,384.614 8.912,381.799 8.439,378.925 C7.967,376.051 8.738,351.345 10.223,346.345 C12.422,338.356 13.934,341.078 16.391,345.928 C19.164,351.929 26.355,375.125 25.935,378.949" id="Fill-55" fill="#AFAFAF"></path>
                        <path d="M34.965,18.87 C32.066,33.801 29.117,31.203 26.4,39.549 C24.895,44.183 25.582,46.802 26.328,51.406 C25.275,46.853 24.51,44.023 25.467,39.307 C27.137,31.055 31.248,32.971 34.965,18.87" id="Fill-56" fill="#AFAFAF"></path>
                        <path d="M32.957,27.908 C29.182,37.864 22.578,48.701 28.939,58.637 C20.422,47.136 27.547,39.42 32.957,27.908" id="Fill-57" fill="#AFAFAF"></path>
                        <path d="M39.182,27.708 C19.994,39.05 23.85,70.347 39.785,63.457 C24.305,70.952 16.406,39.873 39.182,27.708" id="Fill-58" fill="#AFAFAF"></path>
                        <path d="M33.559,37.548 C28.064,44.349 28.896,61.04 41.191,62.654 C27.441,61.814 26.42,45.237 33.559,37.548" id="Fill-59" fill="#AFAFAF"></path>
                        <path d="M36.371,35.339 C33.203,41.779 22.928,61.055 37.789,63.364 C41.793,63.985 46.402,61.581 47.617,57.633 C46.451,62.156 41.027,64.854 36.594,63.875 C20.959,60.423 32.232,42.792 36.371,35.339" id="Fill-60" fill="#AFAFAF"></path>
                        <path d="M34.563,37.348 C25.861,51.258 33.822,70.043 47.016,65.265 C34.375,70.632 22.935,53.839 34.563,37.348" id="Fill-61" fill="#AFAFAF"></path>
                        <path d="M31.551,37.146 C29.873,50.462 28.473,62.731 43.396,69.112 C45.736,70.113 46.42,70.069 48.822,69.884 C46.396,70.194 45.713,70.266 43.285,69.389 C26.631,63.372 28.973,51.374 31.551,37.146" id="Fill-62" fill="#AFAFAF"></path>
                        <path d="M55.25,26.301 C59.301,28.867 75.394,42.822 79.313,40.459 C80.973,39.458 81.416,37.086 81.76,35.339 C81.475,37.457 81.119,40.249 78.848,41.174 C72.967,43.566 59.893,29.72 55.25,26.301" id="Fill-63" fill="#AFAFAF"></path>
                        <path d="M63.686,25.297 C66.178,35.988 78.98,46.438 84.371,40.159 C84.027,40.625 83.756,41.081 83.234,41.372 C74.412,46.306 65.301,35.751 63.686,25.297" id="Fill-64" fill="#AFAFAF"></path>
                        <path d="M61.074,34.737 C74.533,36.513 88.275,47.911 69.711,56.829 L73.002,54.983 C85.166,46.769 70.086,36.506 61.074,34.737" id="Fill-65" fill="#AFAFAF"></path>
                        <path d="M66.096,38.553 C72.752,44.081 78.705,54.653 67.5,57.231 C68.564,56.88 68.041,57.054 69.09,56.705 C76.025,51.731 70.781,43.279 66.096,38.553" id="Fill-66" fill="#AFAFAF"></path>
                        <path d="M66.096,39.557 C73.615,42.337 77.98,47.806 75.227,55.821 L75.227,55.823 L74.932,56.628 C76.699,49.64 72.379,42.676 66.096,39.557" id="Fill-67" fill="#AFAFAF"></path>
                        <path d="M63.082,17.866 C69.303,39.935 88.758,30.832 82.363,47.59 C87.824,30.43 68.627,43.078 63.082,17.866" id="Fill-68" fill="#AFAFAF"></path>
                        <path d="M64.689,19.272 C70.111,38.371 80.758,36.431 79.15,48.595 C80.035,35.183 69.728,43.483 64.689,19.272" id="Fill-69" fill="#AFAFAF"></path>
                        <path d="M64.086,27.708 C73.971,30.801 84.912,42.477 76.939,51.406 C83.482,42.948 71.959,30.809 64.086,27.708" id="Fill-70" fill="#AFAFAF"></path>
                        <path d="M60.07,12.845 C66.693,24.678 66.955,28.836 78.949,34.737 C64.293,28.914 66.549,27.193 60.07,12.845" id="Fill-71" fill="#AFAFAF"></path>
                        <path d="M54.848,10.837 C66.828,14.464 68.654,23.31 74.529,33.532 C68.541,24.867 64.912,14.721 54.848,10.837" id="Fill-72" fill="#AFAFAF"></path>
                        <path d="M57.66,11.439 C62.773,18.641 63.209,13.44 70.428,28.958 C72.791,34.038 74.561,35.053 79.752,35.942 C72.197,35.148 70.51,31.907 67.037,25.146 C61.137,13.661 61.131,17.048 57.66,11.439" id="Fill-73" fill="#AFAFAF"></path>
                        <path d="M57.861,11.439 C69.752,18.846 76.162,36.131 82.764,34.536 C81.949,34.787 81.434,34.851 80.582,34.606 C72.068,32.168 67.066,18.047 57.861,11.439" id="Fill-74" fill="#AFAFAF"></path>
                        <path d="M61.074,14.05 C65.324,23.682 71.631,32.416 81.561,36.745 C69.205,32.369 65.23,25.849 61.074,14.05" id="Fill-75" fill="#AFAFAF"></path>
                        <path d="M63.686,19.071 C71.453,32.138 84.713,32.317 80.957,47.189 C83.492,33.521 71.461,34.378 63.686,19.071" id="Fill-76" fill="#AFAFAF"></path>
                        <path d="M67.1,26.101 C72.529,31.006 85.461,40.875 78.684,50.381 C76.902,52.879 73.508,52.268 70.916,52.009 C73.139,52.096 76.252,52.502 77.896,50.546 C84.039,43.237 70.91,30.024 67.1,26.101" id="Fill-77" fill="#AFAFAF"></path>
                        <path d="M59.668,23.69 C70.457,28.783 85.707,44.435 76.027,55.234 C75.191,56.168 74.816,56.248 73.727,56.829 C86.4,49.217 69.795,29.146 59.668,23.69" id="Fill-78" fill="#AFAFAF"></path>
                        <path d="M66.496,29.917 C75.273,35.875 79.877,42.988 75.758,53.824 C75.08,55.606 74.486,56.039 73.125,57.231 C74.008,56.344 74.389,56.1 74.957,55.007 C79.502,46.255 73.199,35.207 66.496,29.917" id="Fill-79" fill="#AFAFAF"></path>
                        <path d="M65.895,32.327 C72.248,33.08 79.459,48.245 75.734,56.628 C78.039,50.113 71.455,33.424 65.895,32.327" id="Fill-80" fill="#AFAFAF"></path>
                        <path d="M37.977,12.845 C31.135,32.383 24.693,31.066 21.021,39.89 C18.646,45.593 19.529,48.302 21.709,53.616 C19.227,48.308 18.33,45.426 20.252,39.604 C23.457,29.887 30.828,30.399 37.977,12.845" id="Fill-81" fill="#AFAFAF"></path>
                        <path d="M34.965,23.289 C32.574,30.718 21.672,54.881 25.752,62.451 C27.437,65.574 29.623,66.361 32.644,67.787 C27.697,66.342 24.262,63.638 23.693,57.614 C22.805,48.201 31.127,33.535 34.965,23.289 Z M32.644,67.787 L32.67,67.799 L32.756,67.819 L32.644,67.787 Z M32.67,67.799 L32.672,67.799 L32.664,67.797 L32.67,67.799 Z M32.756,67.819 L35.566,68.478 C34.586,68.291 33.646,68.074 32.756,67.819 L32.756,67.819 Z" id="Fill-82" fill="#AFAFAF"></path>
                        <path d="M32.152,30.117 C28.629,41.063 22.59,64.469 39.412,69.157 C41.002,69.601 42.086,69.635 43.602,69.081 C42.094,69.708 40.99,69.718 39.361,69.348 C20.09,64.958 27.797,41.649 32.152,30.117" id="Fill-83" fill="#AFAFAF"></path>
                        <path d="M30.346,41.364 C29.924,55.648 31.094,70.714 48.621,72.696 C29.176,71.546 28.986,56.942 30.346,41.364" id="Fill-84" fill="#AFAFAF"></path>
                        <path d="M33.559,38.352 C31.205,54.043 33.406,68.886 50.027,73.901 C31.07,69.212 30.033,55.632 33.559,38.352" id="Fill-85" fill="#AFAFAF"></path>
                        <path d="M33.156,48.193 C36.328,59.159 39.932,70.955 52.238,73.449 L53.24,73.298 C53.221,73.303 52.25,73.514 52.232,73.514 C38.055,72.833 35.484,59.093 33.156,48.193" id="Fill-86" fill="#AFAFAF"></path>
                        <path d="M37.777,34.938 C28.519,48.797 31.018,65.361 47.016,72.495 L45.645,71.96 L45.641,71.959 C28.848,65.718 27.779,48.404 37.777,34.938" id="Fill-87" fill="#AFAFAF"></path>
                        <path d="M39.785,37.75 C31.326,49.248 33.877,64.88 47.016,72.495 C32.752,65.238 29.373,50.397 39.785,37.75" id="Fill-88" fill="#AFAFAF"></path>
                        <path d="M32.756,32.527 C23.941,40.277 21.566,65.733 37.059,71.383 L41.391,72.495 L36.994,71.574 C18.816,65.898 23.145,40.267 32.756,32.527" id="Fill-89" fill="#AFAFAF"></path>
                        <path d="M31.338,51.019 C27.186,55.923 29.973,68.331 39.025,69.863 C27.998,69.015 25.941,56.35 31.338,51.019" id="Fill-90" fill="#AFAFAF"></path>
                        <path d="M34.525,44.831 C24.977,49.443 30.205,61.454 35.744,67.331 C28.447,60.794 23.109,49.238 34.525,44.831" id="Fill-91" fill="#AFAFAF"></path>
                        <path d="M33.775,49.706 C29.24,57.188 33.973,73.188 43.334,71.773 C36.115,74.574 25.799,60.927 33.775,49.706 Z M43.334,71.773 L43.375,71.769 L43.463,71.724 C43.422,71.742 43.379,71.757 43.334,71.773 Z M43.375,71.769 L43.377,71.768 L43.369,71.771 L43.375,71.769 Z M43.463,71.724 L44.182,71.363 C43.947,71.503 43.707,71.623 43.463,71.724 L43.463,71.724 Z" id="Fill-92" fill="#AFAFAF"></path>
                        <path d="M34.338,53.269 C34.398,58.097 35.439,70.467 42.869,70.144 C42.441,70.207 42.383,70.239 41.945,70.206 C33.084,69.527 33.744,59.326 34.338,53.269" id="Fill-93" fill="#AFAFAF"></path>
                        <path d="M27.307,48.769 C30.16,53.859 36.91,63.188 28.174,67.186 C26.512,67.946 24.943,67 23.557,66.206 C24.727,66.746 25.762,67.348 27.115,67.087 C35.096,65.553 28.652,51.789 27.307,48.769" id="Fill-94" fill="#AFAFAF"></path>
                        <path d="M27.213,51.956 C33.465,60.367 29.975,66.972 24.869,64.613 C31.578,66.726 29.361,55.875 27.213,51.956" id="Fill-95" fill="#AFAFAF"></path>
                        <path d="M30.963,53.456 C34.031,56.882 42.578,66.13 34.689,70.13 C33.387,70.79 32.34,70.613 30.963,70.519 C41.73,70.206 34.096,57.794 30.963,53.456" id="Fill-96" fill="#AFAFAF"></path>
                        <path d="M34.18,23.346 C37.037,43.782 15.654,36.504 21.5,47.813 C22.232,49.232 23.23,49.948 24.787,49.955 C23.184,50.047 22.111,49.349 21.258,47.948 C14.342,36.595 35.535,41.176 34.18,23.346" id="Fill-97" fill="#AFAFAF"></path>
                        <path d="M30.764,30.461 C30.242,34.915 27.109,47.571 20.508,43.388 C18.996,42.43 18.432,40.745 17.957,39.141 C18.408,40.262 18.738,41.156 19.604,42.062 C25.021,47.732 30.164,33.185 30.764,30.461" id="Fill-98" fill="#AFAFAF"></path>
                        <path d="M33.184,23.773 C30.666,29.248 29.689,33.924 22.654,30.746 C28.09,32.239 30.299,27.953 33.184,23.773" id="Fill-99" fill="#AFAFAF"></path>
                        <path d="M40.439,18.936 C31.621,22.316 36.74,28.657 21.799,29.322 C33.717,27.494 31.924,21.249 40.439,18.936" id="Fill-100" fill="#AFAFAF"></path>
                        <path d="M34.32,27.046 C33.859,48.81 15.768,49.2 21.373,58.493 C15.377,49.795 32.799,45.06 34.32,27.046" id="Fill-101" fill="#AFAFAF"></path>
                        <path d="M32.328,38.998 C28.408,46.572 16.77,61.243 26.811,66.362 L28.486,66.746 C12.664,64.199 29.459,43.692 32.328,38.998" id="Fill-102" fill="#AFAFAF"></path>
                        <path d="M32.328,30.746 C29.15,37.727 13.682,61.219 28.203,64.184 C11.33,61.699 29.66,35.76 32.328,30.746" id="Fill-103" fill="#AFAFAF"></path>
                        <rect id="Rectangle-7" fill="url(#linearGradient-1)" x="7" y="222" width="191" height="296"></rect>
                    </g>
                </g>
            </g>
        </g>
    </g>
</svg>