<?xml version="1.0" encoding="UTF-8" standalone="no"?>
<svg width="191px" height="518px" viewBox="0 0 191 518" version="1.1" xmlns="http://www.w3.org/2000/svg" xmlns:xlink="http://www.w3.org/1999/xlink">
    <!-- Generator: Sketch 41.2 (35397) - http://www.bohemiancoding.com/sketch -->
    <title>img_girl_2</title>
    <desc>Created with Sketch.</desc>
    <defs>
        <linearGradient x1="50%" y1="0%" x2="50%" y2="100%" id="linearGradient-1">
            <stop stop-color="#222836" stop-opacity="0" offset="0%"></stop>
            <stop stop-color="#0F1219" offset="100%"></stop>
        </linearGradient>
    </defs>
    <g id="Landing" stroke="none" stroke-width="1" fill="none" fill-rule="evenodd" opacity="0.0984141791">
        <g id="Landing_Minx" transform="translate(-602.000000, -3600.000000)">
            <g id="entertainer" transform="translate(0.000000, 2770.000000)">
                <g id="2" transform="translate(0.000000, 700.000000)">
                    <g id="img_girl_2" transform="translate(602.000000, 130.000000)">
                        <path d="M123.403,136.755 C120.808,132.217 121.276,127.003 123.151,121.184 C125.025,115.364 137.616,109.508 128.276,95.019 C144.525,98.415 153.949,104.435 163.964,106.165 C162.676,109.283 159.945,116.447 158.513,120.402 C157.528,123.122 153.478,136.088 150.258,144.448 C150.193,144.466 150.127,144.481 150.063,144.487 L150.166,144.685 C148.743,148.359 148.331,150.533 146.751,151.598 C145.171,152.662 136.77,155.769 132.69,155.332 C129.689,150.338 127.793,144.431 123.403,136.755 Z M122.163,69.524 C126.623,64.861 130.17,58.869 126.803,49.862 C123.435,40.855 121.701,35.36 119.197,21.537 C117.144,10.2 112.764,-1.125 100.236,2.775 C86.725,-4.74 74.774,37.184 74.267,47.605 C73.904,55.055 77.038,59.434 79.568,62.783 C71.436,63.64 66.462,61.55 62.476,63.697 C57.28,66.497 43.806,78.647 38.642,81.43 C33.638,84.125 19.445,92.684 18.133,96.415 C15.651,103.472 38.481,137.957 41.911,147.863 C42.452,147.891 43.845,148.351 45.593,148.757 C50.687,156.445 55.196,162.847 56.627,163.727 C60.231,165.94 67.032,166.966 68.586,167.152 C70.14,167.339 72.179,170.381 74.249,170.94 C74.206,171.115 74.162,171.291 74.121,171.465 C71.787,181.364 71.583,189.74 71.907,200.413 C72.231,211.086 78.779,238.408 83.521,252.59 C88.263,266.772 89.4,271.498 87.679,281.039 C87.685,281.036 90.233,281.964 94.085,282.988 C94.989,294.193 89.891,306.591 88.725,314.887 C87.361,324.596 87.381,329.538 86.768,337.023 C86.156,344.51 84.701,357.789 84.531,361.27 C84.36,364.75 81.493,363.168 79.953,372.131 C87.518,380.225 91.989,397.6 103.022,395.943 C99.125,391.568 95.031,378.29 94.892,371.756 C94.753,365.221 100.15,347.361 104.286,338.54 C106.724,345.076 109.468,355.012 111.731,360.774 C113.995,366.536 115.069,375.531 115.408,377.996 C115.748,380.462 118.052,394.684 122.046,394.684 C126.04,394.684 127.951,381.604 127.798,378.559 C127.644,375.513 125.706,371.107 124.663,360.353 C123.621,349.6 123.307,325.26 121.293,312.914 C119.279,300.567 117.022,297.427 116.83,288.852 C117.293,287.647 117.766,286.403 118.246,285.125 C119.134,284.955 121.905,284.362 122.563,283.817 C123.032,273.774 123.784,272.477 127.247,259.62 C135.053,230.641 141.847,187.666 137.352,169.56 C139.023,168.577 148.318,163.548 150.067,161.291 C151.817,159.035 153.502,156.31 156.819,151.181 C157.836,151.679 158.943,152.109 160.151,152.511 C162.826,148.136 175.455,122.127 177.262,117.248 C179.351,111.609 182.815,104.434 181.346,99.986 C179.754,95.167 158.105,86.273 150.934,82.453 C143.762,78.634 136.489,72.432 131.98,71.414 C129.506,70.855 125.697,70.366 122.163,69.524 Z M56.593,146.233 C56.615,146.193 56.639,146.154 56.661,146.113 C56.671,146.091 55.726,144.277 54.266,141.526 C49.26,131.201 45.146,120.907 43.902,118.329 C42.658,115.752 39.545,110.773 39.28,109.697 C39.015,108.622 39.853,108.132 39.66,107.363 C39.467,106.596 37.616,105.272 37.693,104.168 C37.769,103.065 38.539,103.41 40.411,102.613 C42.282,101.817 40.795,99.483 47.574,97.69 C54.352,95.895 65.866,89.071 69.796,90.948 C73.726,92.825 80.704,134.605 81.148,139.846 C81.592,145.086 79.206,154.076 78.46,157.077 C77.179,155.642 76.254,154.507 75.549,154.258 C74.844,154.008 63.43,154.974 61.119,153.821 C60.447,153.486 58.741,150.475 56.593,146.233 L56.593,146.233 Z" id="Fill-5" fill="#9D9D9D"></path>
                        <path d="M132.899,408.939 C132.892,412.282 125.347,413.432 123.72,413.484 C122.093,413.537 115.965,411.649 115.338,409.31 C113.874,403.851 116.268,381.607 117.984,376.747 C120.553,368.966 121.937,371.802 124.169,376.838 C126.662,383.047 132.907,404.595 132.899,408.939" id="Fill-105" fill="#9D9D9D"></path>
                        <path d="M97.308,399.386 C93.651,398.875 90.144,398.668 86.581,397.49 C86.169,397.353 85.522,397.054 85.213,396.726 C84.089,395.536 84.672,394.881 84.672,393.627 C84.672,389.616 84.659,386.167 84.059,382.216 C84.024,381.987 83.961,381.742 83.961,381.517 C83.754,381.517 83.8,393.442 83.756,393.45 C83.479,393.501 82.308,393.681 82.306,393.325 C82.68,389.608 82.572,384.032 82.026,380.098 C81.67,377.525 81.207,376.65 79.901,374.632 C78.013,371.712 80.746,367.895 82.123,365.294 C82.2,365.148 82.306,364.979 82.527,365.01 C83.621,365.165 85.84,368.205 86.328,368.774 C93.475,376.792 93.386,385.633 98.397,390.792 C98.472,390.869 98.49,390.882 98.559,390.971 C98.704,391.158 98.91,391.31 99.066,391.488 C99.44,391.913 99.86,392.31 100.274,392.696 C105.771,397.823 111.539,401.373 97.308,399.386" id="Fill-106" fill="#9D9D9D"></path>
                        <path d="M117.817,22.427 C120.741,40.237 136.448,52.628 124.79,70.486 C134.578,53.946 120.069,41.417 117.817,22.427" id="Fill-108" fill="#9D9D9D"></path>
                        <path d="M125.786,50.565 C126.777,60.223 129.07,72.447 116.323,74.471 C117.979,74.075 117.161,74.272 118.798,73.878 C126.91,68.953 125.924,59.057 125.786,50.565" id="Fill-109" fill="#9D9D9D"></path>
                        <path d="M82.706,22.427 C76.897,35.302 69.621,51.035 78.473,64.012 C67.435,49.457 75.211,36.8 82.706,22.427" id="Fill-110" fill="#9D9D9D"></path>
                        <path d="M75.485,48.573 C74.626,55.127 81.192,62.515 85.446,66.502 C79.292,61.947 73.448,57.16 75.485,48.573" id="Fill-111" fill="#9D9D9D"></path>
                        <path d="M86.94,8.233 C93.476,-6.06 105.857,4.449 106.861,7.735 C105.509,4.377 93.282,-2.835 86.94,8.233" id="Fill-112" fill="#9D9D9D"></path>
                        <path d="M94.908,2.506 C87.094,7.476 81.152,28.104 78.722,36.123 C81.224,25.434 84.032,8.57 94.908,2.506" id="Fill-113" fill="#9D9D9D"></path>
                        <path d="M93.912,2.257 C86.018,10.887 79.537,22.154 76.73,33.633 C79.373,19.066 83.428,12.278 93.912,2.257" id="Fill-114" fill="#9D9D9D"></path>
                        <path d="M98.893,6.49 C101.576,0.832 104.16,-0.772 109.6,2.755 C105.377,0.978 101.493,2.851 98.893,6.49" id="Fill-115" fill="#9D9D9D"></path>
                        <path d="M99.888,5.992 C108.096,-3.051 117.406,8.307 119.56,17.447 C117.205,10.091 107.822,-1.459 99.888,5.992" id="Fill-116" fill="#9D9D9D"></path>
                        <path d="M110.845,6.739 C127.353,28.065 117.122,29.8 130.019,51.81 L129.158,50.479 L129.157,50.478 C115.632,29.482 124.82,26.682 110.845,6.739" id="Fill-117" fill="#9D9D9D"></path>
                        <path d="M84.201,17.696 C80.368,31.434 82.387,26.433 74.958,39.382 C72.029,44.489 72.929,49.623 73.991,55.048 C72.323,48.536 71.307,42.735 74.935,36.621 C81.904,24.88 79.592,31.115 84.201,17.696" id="Fill-118" fill="#9D9D9D"></path>
                        <path d="M77.727,40.355 C73.548,49.246 79.175,65.89 86.691,71.731 C77.354,65.365 72.227,50.365 77.727,40.355" id="Fill-119" fill="#9D9D9D"></path>
                        <rect id="Rectangle-7" fill="url(#linearGradient-1)" x="0" y="222" width="191" height="296"></rect>
                    </g>
                </g>
            </g>
        </g>
    </g>
</svg>