<?xml version="1.0" encoding="UTF-8" standalone="no"?>
<svg width="191px" height="512px" viewBox="0 0 191 512" version="1.1" xmlns="http://www.w3.org/2000/svg" xmlns:xlink="http://www.w3.org/1999/xlink">
    <!-- Generator: Sketch 41.2 (35397) - http://www.bohemiancoding.com/sketch -->
    <title>img_girl_3</title>
    <desc>Created with Sketch.</desc>
    <defs>
        <linearGradient x1="50%" y1="0%" x2="50%" y2="100%" id="linearGradient-1">
            <stop stop-color="#222836" stop-opacity="0" offset="0%"></stop>
            <stop stop-color="#0F1219" offset="100%"></stop>
        </linearGradient>
    </defs>
    <g id="Landing" stroke="none" stroke-width="1" fill="none" fill-rule="evenodd" opacity="0.0984141791">
        <g id="Landing_Minx" transform="translate(-282.000000, -3606.000000)">
            <g id="entertainer" transform="translate(0.000000, 2770.000000)">
                <g id="2" transform="translate(0.000000, 700.000000)">
                    <g id="img_girl_3" transform="translate(282.000000, 130.000000)">
                        <path d="M144.858,376.106 C139.294,358.757 135.67,334.83 132.514,321.15 C129.359,307.471 125.662,300.331 122.564,292.619 C119.466,284.906 118.852,277.265 118.17,269.518 L120.685,259.646 C135.811,216.26 144.558,191.502 125.041,156.066 C126.081,155.152 127.185,154.202 128.333,153.222 C129.071,153.678 129.911,154.021 130.419,154.197 C138.481,148.647 154.365,130.131 160.621,119.397 C162.281,116.548 164.498,113.633 162.629,110.753 C158.623,104.572 148.239,97.471 143.7,90.798 C139.161,84.125 136.347,78.058 131.751,74.659 C128.287,72.097 117.006,71.423 114.902,68.497 C112.799,65.571 111.449,63.686 109.52,61.577 C110.003,58.407 110.494,56.688 111.68,54.282 C112.866,51.876 116.102,47.632 117.371,45.838 C117.716,46.828 118.824,47.62 120.554,45.508 C121.388,44.49 122.202,44.422 122.98,43.42 C124.261,41.769 124.489,40.635 124.492,38.405 C124.497,35.357 122.136,36.658 121.751,36.221 C127.604,23.095 123.26,10.229 110.817,7.536 C97.871,4.736 88.682,14.941 88.458,29.739 C87.497,28.859 86.804,28.782 85.963,29.438 C83.18,31.607 85.039,36.074 86.339,38.719 C87.549,41.181 88.454,41.695 89.306,40.291 C89.81,43.474 90.52,46.709 90.554,49.946 C90.581,52.527 89.91,56.826 89.074,58.735 C86.679,60.078 83.548,62.689 80.529,63.91 C77.511,65.131 62.89,64.475 58.66,66.328 C54.43,68.18 51.631,86.576 50.404,95.347 C49.177,104.118 44.119,123.466 41.631,135.956 C39.797,145.167 40.34,148.475 40.265,155.977 C40.15,167.487 42.086,184.277 39.074,194.873 C41.025,196.996 45.518,201.059 52.066,197.608 C50.627,192.975 51.003,185.282 51.763,177.388 L54.112,165.06 C55.684,157.128 56.19,142.652 57.183,136.495 C58.176,130.337 60.672,123.768 62.392,119.866 L63.04,117.929 C64.378,124.43 68.865,140.184 68.201,145.437 C67.537,150.69 65.56,154.468 64.901,159.634 C64.244,164.799 64.504,169.87 64.269,176.292 C64.034,182.713 62.741,188.508 65.272,204.019 C67.805,219.53 78.477,243.427 93.411,272.877 C91.202,287.476 86.357,303.269 84.883,315.705 C83.398,328.233 84.613,338.724 83.01,350.852 C81.407,362.981 78.068,375.158 78.022,378.431 C77.974,381.947 79.66,389.001 82.527,389.256 C85.394,389.511 88.855,382.679 89.783,379.724 C90.436,377.641 93.14,362.908 97.377,351.67 C101.615,340.433 103.44,335.77 106.549,326.362 C115.61,344.211 130.781,370.617 131.856,373.627 C132.933,376.636 136.312,386.648 136.934,388.29 C137.556,389.933 140.507,396.935 144.298,395.663 C148.088,394.391 148.104,387.452 148.013,385.828 C147.923,384.215 145.821,379.11 144.858,376.106 Z M145.063,114.437 C136.054,125.613 129.355,137.469 121.442,149.357 C119.803,147.595 114.446,137.836 113.823,135.37 C112.952,131.923 114.23,126.739 115.31,123.932 C116.39,121.125 118.563,118.581 119.138,115.459 C119.713,112.338 119.696,106.409 120.366,102.354 C121.037,98.299 121.454,98.464 123.002,95.161 C125.598,96.886 134.922,104.782 145.063,114.437 L145.063,114.437 Z" id="Fill-2" fill="#AFAFAF"></path>
                        <path d="M127.48084,60.2222382 C121.37484,70.8612382 102.49284,79.5772382 93.4008399,69.4832382 L93.1178399,69.0862382 C88.9498399,53.8092382 80.1878399,63.3802382 82.3438399,41.8132382 C77.0528399,53.9812382 86.0548399,58.6962382 86.1628399,60.3592382 C69.6548399,52.9702382 81.5388399,31.3812382 81.5258399,31.3132382 C74.4668399,35.4092382 76.6758399,41.4012382 76.3438399,45.3592382 C75.2368399,42.6682382 74.1138399,36.9682382 76.0588399,34.2122382 C84.1118399,22.8082382 82.8008399,13.9722382 94.4808399,7.17623824 C96.1858399,6.76823824 105.01184,4.85623824 106.27384,6.23423824 C106.33384,5.87323824 109.16584,8.01023824 109.48084,8.26723824 C124.30684,19.5702382 118.71484,37.1772382 130.75184,37.1772382 C130.06684,38.3132382 125.91784,39.4832382 122.84384,37.1772382 C122.82284,37.1582382 131.46884,45.4632382 128.29884,49.1772382 C128.10384,45.1412382 126.32284,44.9162382 123.79884,42.2222382 C125.81884,45.9802382 131.78384,55.9182382 127.48084,60.2222382" id="Fill-54" fill="#AFAFAF" transform="translate(102.875920, 39.846652) scale(-1, 1) rotate(-12.000000) translate(-102.875920, -39.846652) "></path>
                        <path d="M155.024,415.063 C155.018,418.408 147.472,419.557 145.845,419.61 C144.218,419.663 138.09,417.775 137.463,415.435 C135.999,409.975 138.394,387.733 140.11,382.872 C142.679,375.091 144.062,377.927 146.294,382.963 C148.787,389.171 155.032,410.72 155.024,415.063" id="Fill-8" fill="#AFAFAF"></path>
                        <path d="M93.519,408.5 C93.395,412.344 86.581,414.307 84.952,414.359 C83.324,414.412 75.097,411.586 74.541,409.248 C73.245,403.788 77.723,381.17 79.587,376.309 C82.394,368.528 83.69,371.364 85.769,376.4 C88.073,382.609 93.644,404.657 93.519,408.5" id="Fill-9" fill="#AFAFAF"></path>
                        <path d="M47.714,229.151 C47.714,226.871 49.059,222.787 48.842,221.196 C48.626,219.606 48.849,218.018 49.352,217.056 C49.855,216.094 52.236,217.075 52.722,217.955 C53.207,218.833 54.472,221.927 54.744,222.477 C55.016,223.028 57.242,226.019 57.889,226.072 C58.537,226.125 58.881,226.211 59.462,225.623 C60.043,225.035 57.656,221.595 57.665,221.354 C57.673,221.114 54.668,211.236 54.086,209.815 C53.503,208.393 50.066,202.254 49.292,199.433 C48.518,196.612 49.523,186.042 49.421,184.149 C48.226,182.998 42.812,179.658 41.075,180.071 C41.138,182.655 42.517,197.399 42.555,199.259 C42.593,201.119 43.49,205.597 43.523,208.767 C43.557,211.937 44.798,218.197 44.798,221.9 C44.79,222.433 44.904,226.191 45.242,228.477 C45.58,230.764 46.705,235.848 46.59,237.914 C46.475,239.98 48.261,238.736 48.388,237.015 C48.514,235.294 47.714,231.433 47.714,229.151" id="Fill-10" fill="#AFAFAF"></path>
                        <path d="M47.677,214.25 C44.99,213.209 44.842,218.109 45.311,218.8 C45.869,221.442 46.175,225.69 46.697,227.598 C47.219,229.506 50.612,235.69 50.5,236.492 C50.388,237.295 52.005,236.841 52.111,235.157 C52.218,233.473 49.709,226.532 49.546,226.094 C49.382,225.656 47.49,214.266 47.677,214.25" id="Fill-11" fill="#AFAFAF"></path>
                        <path d="M47.01,214.132 C44.607,213.54 45.019,217.731 45.495,218.268 C46.26,220.457 46.988,224.042 47.643,225.61 C48.297,227.179 51.867,232.073 51.86,232.769 C51.852,233.466 53.18,232.901 53.085,231.455 C52.991,230.008 50.091,224.371 49.904,224.016 C49.833,223.881 48.817,221.414 48.828,217.559 C48.834,215.507 50.09,211.617 49.813,210.669 C49.238,208.704 46.944,214.146 47.01,214.132" id="Fill-12" fill="#AFAFAF"></path>
                        <path d="M65.814,205.481 C73.623,173.435 101.615,161.182 126.771,181.352 C128.12,182.434 129.617,182.622 130.814,181.481 C137.914,189.315 122.814,258.409 122.814,277.981 C121.279,277.981 111.37,279.373 109.814,279.81 C98.042,283.111 81.157,270.157 80.314,270.981 C77.518,238.358 66.871,219.454 65.814,205.481" id="Fill-13" fill="#AFAFAF"></path>
                        <rect id="Rectangle-7" fill="url(#linearGradient-1)" x="0" y="222" width="191" height="296"></rect>
                    </g>
                </g>
            </g>
        </g>
    </g>
</svg>