<?xml version="1.0" encoding="UTF-8" standalone="no"?>
<svg width="17px" height="15px" viewBox="0 0 17 15" version="1.1" xmlns="http://www.w3.org/2000/svg" xmlns:xlink="http://www.w3.org/1999/xlink">
    <!-- Generator: Sketch 39.1 (31720) - http://www.bohemiancoding.com/sketch -->
    <title>icon_dashboard</title>
    <desc>Created with Sketch.</desc>
    <defs></defs>
    <g id="Admin-Panel-Provider" stroke="none" stroke-width="1" fill="none" fill-rule="evenodd">
        <g id="02_1024_AdminProvider_-Minx_Entertainers_1_Menu" transform="translate(-27.000000, -184.000000)" fill="#747984">
            <g id="Menu">
                <path d="M30.6428571,193.357143 C30.6428571,193.021948 30.5242757,192.735771 30.2871094,192.498605 C30.049943,192.261439 29.7637666,192.142857 29.4285714,192.142857 C29.0933763,192.142857 28.8071998,192.261439 28.5700335,192.498605 C28.3328671,192.735771 28.2142857,193.021948 28.2142857,193.357143 C28.2142857,193.692338 28.3328671,193.978514 28.5700335,194.215681 C28.8071998,194.452847 29.0933763,194.571429 29.4285714,194.571429 C29.7637666,194.571429 30.049943,194.452847 30.2871094,194.215681 C30.5242757,193.978514 30.6428571,193.692338 30.6428571,193.357143 L30.6428571,193.357143 Z M32.4642857,189.107143 C32.4642857,188.771948 32.3457043,188.485771 32.1085379,188.248605 C31.8713716,188.011439 31.5851951,187.892857 31.25,187.892857 C30.9148049,187.892857 30.6286284,188.011439 30.3914621,188.248605 C30.1542957,188.485771 30.0357143,188.771948 30.0357143,189.107143 C30.0357143,189.442338 30.1542957,189.728514 30.3914621,189.965681 C30.6286284,190.202847 30.9148049,190.321429 31.25,190.321429 C31.5851951,190.321429 31.8713716,190.202847 32.1085379,189.965681 C32.3457043,189.728514 32.4642857,189.442338 32.4642857,189.107143 L32.4642857,189.107143 Z M36.5245536,193.670201 L37.4827009,190.046317 C37.5206475,189.881882 37.4969312,189.728516 37.4115513,189.586217 C37.3261714,189.443917 37.2044279,189.350633 37.046317,189.306362 C36.8882061,189.262091 36.7364219,189.282645 36.5909598,189.368025 C36.4454978,189.453404 36.3506327,189.57831 36.3063616,189.742746 L35.3482143,193.366629 C34.9687481,193.398252 34.6303958,193.535806 34.3331473,193.779297 C34.0358988,194.022788 33.8366821,194.334261 33.7354911,194.713728 C33.6090023,195.200709 33.6722458,195.662386 33.9252232,196.098772 C34.1782007,196.535158 34.5481746,196.816592 35.0351562,196.94308 C35.5221379,197.069569 35.9838148,197.006326 36.4202009,196.753348 C36.856587,196.500371 37.1380202,196.130397 37.2645089,195.643415 C37.3656999,195.263949 37.3467269,194.893975 37.2075893,194.533482 C37.0684517,194.172989 36.8407754,193.885232 36.5245536,193.670201 L36.5245536,193.670201 Z M42.7857143,193.357143 C42.7857143,193.021948 42.6671329,192.735771 42.4299665,192.498605 C42.1928002,192.261439 41.9066237,192.142857 41.5714286,192.142857 C41.2362334,192.142857 40.950057,192.261439 40.7128906,192.498605 C40.4757243,192.735771 40.3571429,193.021948 40.3571429,193.357143 C40.3571429,193.692338 40.4757243,193.978514 40.7128906,194.215681 C40.950057,194.452847 41.2362334,194.571429 41.5714286,194.571429 C41.9066237,194.571429 42.1928002,194.452847 42.4299665,194.215681 C42.6671329,193.978514 42.7857143,193.692338 42.7857143,193.357143 L42.7857143,193.357143 Z M36.7142857,187.285714 C36.7142857,186.950519 36.5957043,186.664343 36.3585379,186.427176 C36.1213716,186.19001 35.8351951,186.071429 35.5,186.071429 C35.1648049,186.071429 34.8786284,186.19001 34.6414621,186.427176 C34.4042957,186.664343 34.2857143,186.950519 34.2857143,187.285714 C34.2857143,187.620909 34.4042957,187.907086 34.6414621,188.144252 C34.8786284,188.381419 35.1648049,188.5 35.5,188.5 C35.8351951,188.5 36.1213716,188.381419 36.3585379,188.144252 C36.5957043,187.907086 36.7142857,187.620909 36.7142857,187.285714 L36.7142857,187.285714 Z M40.9642857,189.107143 C40.9642857,188.771948 40.8457043,188.485771 40.6085379,188.248605 C40.3713716,188.011439 40.0851951,187.892857 39.75,187.892857 C39.4148049,187.892857 39.1286284,188.011439 38.8914621,188.248605 C38.6542957,188.485771 38.5357143,188.771948 38.5357143,189.107143 C38.5357143,189.442338 38.6542957,189.728514 38.8914621,189.965681 C39.1286284,190.202847 39.4148049,190.321429 39.75,190.321429 C40.0851951,190.321429 40.3713716,190.202847 40.6085379,189.965681 C40.8457043,189.728514 40.9642857,189.442338 40.9642857,189.107143 L40.9642857,189.107143 Z M44,193.357143 C44,195.007821 43.5541339,196.535149 42.6623884,197.939174 C42.5422241,198.122583 42.3714669,198.214286 42.1501116,198.214286 L28.8498884,198.214286 C28.6285331,198.214286 28.4577759,198.122583 28.3376116,197.939174 C27.4458661,196.541474 27,195.014145 27,193.357143 C27,192.206095 27.2245141,191.10566 27.6735491,190.055804 C28.1225841,189.005947 28.7265587,188.101566 29.4854911,187.342634 C30.2444234,186.583702 31.1488043,185.979727 32.1986607,185.530692 C33.2485172,185.081657 34.3489526,184.857143 35.5,184.857143 C36.6510474,184.857143 37.7514828,185.081657 38.8013393,185.530692 C39.8511957,185.979727 40.7555766,186.583702 41.5145089,187.342634 C42.2734413,188.101566 42.8774159,189.005947 43.3264509,190.055804 C43.7754859,191.10566 44,192.206095 44,193.357143 L44,193.357143 Z" id="icon_dashboard"></path>
            </g>
        </g>
    </g>
</svg>