<?xml version="1.0" encoding="UTF-8" standalone="no"?>
<svg width="13px" height="16px" viewBox="0 0 13 16" version="1.1" xmlns="http://www.w3.org/2000/svg" xmlns:xlink="http://www.w3.org/1999/xlink">
    <!-- Generator: Sketch 39.1 (31720) - http://www.bohemiancoding.com/sketch -->
    <title>icon_orders</title>
    <desc>Created with Sketch.</desc>
    <defs></defs>
    <g id="Admin-Panel-Provider" stroke="none" stroke-width="1" fill="none" fill-rule="evenodd">
        <g id="02_1024_AdminProvider_-Minx_Entertainers_1_Menu" transform="translate(-29.000000, -325.000000)" fill="#747984">
            <g id="Menu">
                <path d="M41.4181985,329.127232 C41.4963239,329.205358 41.5744481,329.305803 41.6525735,329.428571 L37.7016807,329.428571 L37.7016807,325.477679 C37.8244491,325.555804 37.9248946,325.633928 38.00302,325.712054 L41.4181985,329.127232 Z M37.4338235,330.5 L41.987395,330.5 L41.987395,339.339286 C41.987395,339.562501 41.9092707,339.752231 41.75302,339.908482 C41.5967692,340.064733 41.4070389,340.142857 41.1838235,340.142857 L29.9338235,340.142857 C29.7106081,340.142857 29.5208779,340.064733 29.3646271,339.908482 C29.2083763,339.752231 29.1302521,339.562501 29.1302521,339.339286 L29.1302521,325.946429 C29.1302521,325.723213 29.2083763,325.533483 29.3646271,325.377232 C29.5208779,325.220981 29.7106081,325.142857 29.9338235,325.142857 L36.6302521,325.142857 L36.6302521,329.696429 C36.6302521,329.919644 36.7083763,330.109374 36.8646271,330.265625 C37.0208779,330.421876 37.2106081,330.5 37.4338235,330.5 L37.4338235,330.5 Z M38.7731092,336.660714 L38.7731092,336.125 C38.7731092,336.046875 38.7479979,335.982701 38.6977744,335.932478 C38.647551,335.882254 38.5833775,335.857143 38.5052521,335.857143 L32.612395,335.857143 C32.5342696,335.857143 32.4700961,335.882254 32.4198726,335.932478 C32.3696492,335.982701 32.3445378,336.046875 32.3445378,336.125 L32.3445378,336.660714 C32.3445378,336.73884 32.3696492,336.803013 32.4198726,336.853237 C32.4700961,336.90346 32.5342696,336.928571 32.612395,336.928571 L38.5052521,336.928571 C38.5833775,336.928571 38.647551,336.90346 38.6977744,336.853237 C38.7479979,336.803013 38.7731092,336.73884 38.7731092,336.660714 L38.7731092,336.660714 Z M38.7731092,334.517857 L38.7731092,333.982143 C38.7731092,333.904017 38.7479979,333.839844 38.6977744,333.789621 C38.647551,333.739397 38.5833775,333.714286 38.5052521,333.714286 L32.612395,333.714286 C32.5342696,333.714286 32.4700961,333.739397 32.4198726,333.789621 C32.3696492,333.839844 32.3445378,333.904017 32.3445378,333.982143 L32.3445378,334.517857 C32.3445378,334.595983 32.3696492,334.660156 32.4198726,334.710379 C32.4700961,334.760603 32.5342696,334.785714 32.612395,334.785714 L38.5052521,334.785714 C38.5833775,334.785714 38.647551,334.760603 38.6977744,334.710379 C38.7479979,334.660156 38.7731092,334.595983 38.7731092,334.517857 L38.7731092,334.517857 Z M38.7731092,332.375 L38.7731092,331.839286 C38.7731092,331.76116 38.7479979,331.696987 38.6977744,331.646763 C38.647551,331.59654 38.5833775,331.571429 38.5052521,331.571429 L32.612395,331.571429 C32.5342696,331.571429 32.4700961,331.59654 32.4198726,331.646763 C32.3696492,331.696987 32.3445378,331.76116 32.3445378,331.839286 L32.3445378,332.375 C32.3445378,332.453125 32.3696492,332.517299 32.4198726,332.567522 C32.4700961,332.617746 32.5342696,332.642857 32.612395,332.642857 L38.5052521,332.642857 C38.5833775,332.642857 38.647551,332.617746 38.6977744,332.567522 C38.7479979,332.517299 38.7731092,332.453125 38.7731092,332.375 L38.7731092,332.375 Z" id="icon_orders"></path>
            </g>
        </g>
    </g>
</svg>