<?xml version="1.0" encoding="UTF-8" standalone="no"?>
<svg width="13px" height="18px" viewBox="0 0 13 18" version="1.1" xmlns="http://www.w3.org/2000/svg" xmlns:xlink="http://www.w3.org/1999/xlink">
    <!-- Generator: Sketch 39.1 (31720) - http://www.bohemiancoding.com/sketch -->
    <title>Providers</title>
    <desc>Created with Sketch.</desc>
    <defs></defs>
    <g id="Admin-Panel-Provider" stroke="none" stroke-width="1" fill="none" fill-rule="evenodd">
        <g id="07_1024_AdminProvider_-Minx__Paysheet_1" transform="translate(-29.000000, -229.000000)" fill="#747984">
            <g id="Menu-Collapsed">
                <path d="M41.5714286,239.446429 C41.5714286,239.699406 41.4828878,239.914434 41.3058036,240.091518 C41.1287194,240.268602 40.9136917,240.357143 40.6607143,240.357143 C40.338168,240.357143 40.0851944,240.22117 39.9017857,239.949219 L37.7483259,236.714286 L37.3214286,236.714286 L37.3214286,237.966518 L39.6646205,241.865513 C39.7215405,241.96038 39.75,242.064732 39.75,242.178571 C39.75,242.343007 39.6899188,242.485304 39.5697545,242.605469 C39.4495902,242.725633 39.3072925,242.785714 39.1428571,242.785714 L37.3214286,242.785714 L37.3214286,245.366071 C37.3214286,245.656996 37.2170769,245.906807 37.0083705,246.115513 C36.7996641,246.32422 36.5498526,246.428571 36.2589286,246.428571 L34.7410714,246.428571 C34.4501474,246.428571 34.2003359,246.32422 33.9916295,246.115513 C33.7829231,245.906807 33.6785714,245.656996 33.6785714,245.366071 L33.6785714,242.785714 L31.8571429,242.785714 C31.6927075,242.785714 31.5504098,242.725633 31.4302455,242.605469 C31.3100812,242.485304 31.25,242.343007 31.25,242.178571 C31.25,242.064732 31.2784595,241.96038 31.3353795,241.865513 L33.6785714,237.966518 L33.6785714,236.714286 L33.2516741,236.714286 L31.0982143,239.949219 C30.9148056,240.22117 30.661832,240.357143 30.3392857,240.357143 C30.0863083,240.357143 29.8712806,240.268602 29.6941964,240.091518 C29.5171122,239.914434 29.4285714,239.699406 29.4285714,239.446429 C29.4285714,239.26302 29.4791662,239.095425 29.5803571,238.943638 L32.0089286,235.300781 C32.4706124,234.624067 33.0271545,234.285714 33.6785714,234.285714 L37.3214286,234.285714 C37.9728455,234.285714 38.5293876,234.624067 38.9910714,235.300781 L41.4196429,238.943638 C41.5208338,239.095425 41.5714286,239.26302 41.5714286,239.446429 L41.5714286,239.446429 Z M37.625,231.857143 C37.625,232.445315 37.4178778,232.94652 37.0036272,233.36077 C36.5893766,233.775021 36.0881726,233.982143 35.5,233.982143 C34.9118274,233.982143 34.4106234,233.775021 33.9963728,233.36077 C33.5821222,232.94652 33.375,232.445315 33.375,231.857143 C33.375,231.26897 33.5821222,230.767766 33.9963728,230.353516 C34.4106234,229.939265 34.9118274,229.732143 35.5,229.732143 C36.0881726,229.732143 36.5893766,229.939265 37.0036272,230.353516 C37.4178778,230.767766 37.625,231.26897 37.625,231.857143 L37.625,231.857143 Z" id="Providers"></path>
            </g>
        </g>
    </g>
</svg>