<?xml version="1.0" encoding="UTF-8" standalone="no"?>
<svg width="19px" height="13px" viewBox="0 0 19 13" version="1.1" xmlns="http://www.w3.org/2000/svg" xmlns:xlink="http://www.w3.org/1999/xlink">
    <!-- Generator: Sketch 39.1 (31720) - http://www.bohemiancoding.com/sketch -->
    <title>icon_paysheet</title>
    <desc>Created with Sketch.</desc>
    <defs></defs>
    <g id="Admin-Panel-Provider" stroke="none" stroke-width="1" fill="none" fill-rule="evenodd">
        <g id="02_1024_AdminProvider_-Minx_Entertainers_1_Menu" transform="translate(-26.000000, -372.000000)" fill="#747984">
            <g id="Menu">
                <path d="M33.6785714,381.357143 L37.3214286,381.357143 L37.3214286,380.446429 L36.1071429,380.446429 L36.1071429,376.196429 L35.0256696,376.196429 L33.6216518,377.496094 L34.3521205,378.255022 C34.6177469,378.021018 34.7916663,377.840774 34.8738839,377.714286 L34.8928571,377.714286 L34.8928571,380.446429 L33.6785714,380.446429 L33.6785714,381.357143 Z M38.5357143,378.928571 C38.5357143,379.371282 38.4693087,379.82031 38.3364955,380.27567 C38.2036824,380.731029 38.0155332,381.15476 37.7720424,381.546875 C37.5285516,381.93899 37.2075913,382.258369 36.8091518,382.505022 C36.4107123,382.751675 35.9743327,382.875 35.5,382.875 C35.0256673,382.875 34.5892877,382.751675 34.1908482,382.505022 C33.7924087,382.258369 33.4714484,381.93899 33.2279576,381.546875 C32.9844668,381.15476 32.7963176,380.731029 32.6635045,380.27567 C32.5306913,379.82031 32.4642857,379.371282 32.4642857,378.928571 C32.4642857,378.485861 32.5306913,378.036833 32.6635045,377.581473 C32.7963176,377.126114 32.9844668,376.702383 33.2279576,376.310268 C33.4714484,375.918153 33.7924087,375.598774 34.1908482,375.352121 C34.5892877,375.105468 35.0256673,374.982143 35.5,374.982143 C35.9743327,374.982143 36.4107123,375.105468 36.8091518,375.352121 C37.2075913,375.598774 37.5285516,375.918153 37.7720424,376.310268 C38.0155332,376.702383 38.2036824,377.126114 38.3364955,377.581473 C38.4693087,378.036833 38.5357143,378.485861 38.5357143,378.928571 L38.5357143,378.928571 Z M43.3928571,381.357143 L43.3928571,376.5 C42.7224669,376.5 42.150114,376.262837 41.6757812,375.788504 C41.2014485,375.314172 40.9642857,374.741819 40.9642857,374.071429 L30.0357143,374.071429 C30.0357143,374.741819 29.7985515,375.314172 29.3242187,375.788504 C28.849886,376.262837 28.2775331,376.5 27.6071429,376.5 L27.6071429,381.357143 C28.2775331,381.357143 28.849886,381.594306 29.3242187,382.068638 C29.7985515,382.542971 30.0357143,383.115324 30.0357143,383.785714 L40.9642857,383.785714 C40.9642857,383.115324 41.2014485,382.542971 41.6757812,382.068638 C42.150114,381.594306 42.7224669,381.357143 43.3928571,381.357143 L43.3928571,381.357143 Z M44.6071429,373.464286 L44.6071429,384.392857 C44.6071429,384.557292 44.5470616,384.69959 44.4268973,384.819754 C44.306733,384.939919 44.1644353,385 44,385 L27,385 C26.8355647,385 26.693267,384.939919 26.5731027,384.819754 C26.4529384,384.69959 26.3928571,384.557292 26.3928571,384.392857 L26.3928571,373.464286 C26.3928571,373.29985 26.4529384,373.157553 26.5731027,373.037388 C26.693267,372.917224 26.8355647,372.857143 27,372.857143 L44,372.857143 C44.1644353,372.857143 44.306733,372.917224 44.4268973,373.037388 C44.5470616,373.157553 44.6071429,373.29985 44.6071429,373.464286 L44.6071429,373.464286 Z" id="icon_paysheet"></path>
            </g>
        </g>
    </g>
</svg>