<?xml version="1.0" encoding="UTF-8" standalone="no"?>
<svg width="11px" height="18px" viewBox="0 0 11 18" version="1.1" xmlns="http://www.w3.org/2000/svg" xmlns:xlink="http://www.w3.org/1999/xlink">
    <!-- Generator: Sketch 39.1 (31720) - http://www.bohemiancoding.com/sketch -->
    <title>icon_customers</title>
    <desc>Created with Sketch.</desc>
    <defs></defs>
    <g id="Admin-Panel-Provider" stroke="none" stroke-width="1" fill="none" fill-rule="evenodd">
        <g id="02_1024_AdminProvider_-Minx_Entertainers_1_Menu" transform="translate(-30.000000, -276.000000)" fill="#747984">
            <g id="Menu">
                <path d="M40.3571429,283.107143 L40.3571429,287.053571 C40.3571429,287.306549 40.2686021,287.521576 40.0915179,287.698661 C39.9144336,287.875745 39.699406,287.964286 39.4464286,287.964286 C39.1934511,287.964286 38.9784235,287.875745 38.8013393,287.698661 C38.6242551,287.521576 38.5357143,287.306549 38.5357143,287.053571 L38.5357143,283.714286 L37.9285714,283.714286 L37.9285714,292.366071 C37.9285714,292.656996 37.8242198,292.906807 37.6155134,293.115513 C37.406807,293.32422 37.1569955,293.428571 36.8660714,293.428571 C36.5751474,293.428571 36.3253359,293.32422 36.1166295,293.115513 C35.9079231,292.906807 35.8035714,292.656996 35.8035714,292.366071 L35.8035714,287.964286 L35.1964286,287.964286 L35.1964286,292.366071 C35.1964286,292.656996 35.0920769,292.906807 34.8833705,293.115513 C34.6746641,293.32422 34.4248526,293.428571 34.1339286,293.428571 C33.8430045,293.428571 33.593193,293.32422 33.3844866,293.115513 C33.1757802,292.906807 33.0714286,292.656996 33.0714286,292.366071 L33.0714286,283.714286 L32.4642857,283.714286 L32.4642857,287.053571 C32.4642857,287.306549 32.3757449,287.521576 32.1986607,287.698661 C32.0215765,287.875745 31.8065489,287.964286 31.5535714,287.964286 C31.300594,287.964286 31.0855664,287.875745 30.9084821,287.698661 C30.7313979,287.521576 30.6428571,287.306549 30.6428571,287.053571 L30.6428571,283.107143 C30.6428571,282.601188 30.8199387,282.171133 31.1741071,281.816964 C31.5282756,281.462796 31.9583308,281.285714 32.4642857,281.285714 L38.5357143,281.285714 C39.0416692,281.285714 39.4717244,281.462796 39.8258929,281.816964 C40.1800613,282.171133 40.3571429,282.601188 40.3571429,283.107143 L40.3571429,283.107143 Z M37.625,278.857143 C37.625,279.445315 37.4178778,279.94652 37.0036272,280.36077 C36.5893766,280.775021 36.0881726,280.982143 35.5,280.982143 C34.9118274,280.982143 34.4106234,280.775021 33.9963728,280.36077 C33.5821222,279.94652 33.375,279.445315 33.375,278.857143 C33.375,278.26897 33.5821222,277.767766 33.9963728,277.353516 C34.4106234,276.939265 34.9118274,276.732143 35.5,276.732143 C36.0881726,276.732143 36.5893766,276.939265 37.0036272,277.353516 C37.4178778,277.767766 37.625,278.26897 37.625,278.857143 L37.625,278.857143 Z" id="icon_customers"></path>
            </g>
        </g>
    </g>
</svg>